<?xml version="1.0" encoding="UTF-8"?>
<svg viewBox="0 0 1000 800" xmlns="http://www.w3.org/2000/svg">
  <style>
    .title { font-family: Arial, sans-serif; font-size: 18px; font-weight: bold; fill: #2c3e50; }
    .participant { font-family: Arial, sans-serif; font-size: 12px; font-weight: bold; fill: #2c3e50; text-anchor: middle; }
    .step { font-family: Arial, sans-serif; font-size: 11px; fill: #34495e; }
    .phase { font-family: Arial, sans-serif; font-size: 13px; font-weight: bold; fill: #e74c3c; text-anchor: middle; }
    .line { stroke: #34495e; stroke-width: 1; }
    .arrow { stroke: #34495e; stroke-width: 2; fill: none; }
    .participant-box { fill: #ecf0f1; stroke: #2c3e50; stroke-width: 1; }
    .phase-box { fill: #fef9e7; stroke: #f39c12; stroke-width: 1; }
  </style>
  
  <!-- Title -->
  <text x="500" y="30" class="title" text-anchor="middle">云数惠微信优惠券业务流程时序图</text>
  
  <!-- Participants -->
  <rect x="50" y="60" width="120" height="40" class="participant-box"/>
  <text x="110" y="85" class="participant">领券页面</text>
  
  <rect x="220" y="60" width="120" height="40" class="participant-box"/>
  <text x="280" y="85" class="participant">行方系统</text>
  
  <rect x="390" y="60" width="120" height="40" class="participant-box"/>
  <text x="450" y="75" class="participant">我方系统</text>
  <text x="450" y="90" class="participant">(联合营销平台)</text>
  
  <rect x="560" y="60" width="120" height="40" class="participant-box"/>
  <text x="620" y="85" class="participant">云数惠系统</text>
  
  <rect x="730" y="60" width="120" height="40" class="participant-box"/>
  <text x="790" y="85" class="participant">微信平台</text>
  
  <!-- Lifelines -->
  <line x1="110" y1="100" x2="110" y2="750" class="line"/>
  <line x1="280" y1="100" x2="280" y2="750" class="line"/>
  <line x1="450" y1="100" x2="450" y2="750" class="line"/>
  <line x1="620" y1="100" x2="620" y2="750" class="line"/>
  <line x1="790" y1="100" x2="790" y2="750" class="line"/>
  
  <!-- Phase 1 -->
  <rect x="50" y="130" width="800" height="25" class="phase-box"/>
  <text x="450" y="147" class="phase">第一阶段：获取用户OpenID</text>
  
  <!-- Steps 1-4 -->
  <line x1="110" y1="170" x2="620" y2="170" class="arrow"/>
  <polygon points="615,165 625,170 615,175" fill="#34495e"/>
  <text x="360" y="165" class="step">1. H5页面获取OpenID</text>
  
  <line x1="620" y1="190" x2="790" y2="190" class="arrow"/>
  <polygon points="785,185 795,190 785,195" fill="#34495e"/>
  <text x="700" y="185" class="step">2. 微信授权</text>
  
  <line x1="790" y1="210" x2="620" y2="210" class="arrow" stroke-dasharray="5,5"/>
  <polygon points="625,205 615,210 625,215" fill="#34495e"/>
  <text x="700" y="205" class="step">3. 返回OpenID</text>
  
  <line x1="620" y1="230" x2="110" y2="230" class="arrow"/>
  <polygon points="115,225 105,230 115,235" fill="#34495e"/>
  <text x="360" y="225" class="step">4. 回调返回OpenID</text>
  
  <!-- Phase 2 -->
  <rect x="50" y="260" width="800" height="25" class="phase-box"/>
  <text x="450" y="277" class="phase">第二阶段：优惠券发放</text>
  
  <!-- Steps 5-13 -->
  <line x1="110" y1="300" x2="280" y2="300" class="arrow"/>
  <polygon points="275,295 285,300 275,305" fill="#34495e"/>
  <text x="190" y="295" class="step">5. 发券请求</text>
  
  <line x1="280" y1="320" x2="450" y2="320" class="arrow"/>
  <polygon points="445,315 455,320 445,325" fill="#34495e"/>
  <text x="360" y="315" class="step">6. 调用发券接口</text>
  
  <line x1="450" y1="340" x2="620" y2="340" class="arrow"/>
  <polygon points="615,335 625,340 615,345" fill="#34495e"/>
  <text x="530" y="335" class="step">7. 云数惠发券API</text>
  
  <line x1="620" y1="360" x2="790" y2="360" class="arrow"/>
  <polygon points="785,355 795,360 785,365" fill="#34495e"/>
  <text x="700" y="355" class="step">8. 微信发券</text>
  
  <line x1="790" y1="380" x2="620" y2="380" class="arrow" stroke-dasharray="5,5"/>
  <polygon points="625,375 615,380 625,385" fill="#34495e"/>
  <text x="700" y="375" class="step">9. 发放结果</text>
  
  <line x1="620" y1="400" x2="450" y2="400" class="arrow" stroke-dasharray="5,5"/>
  <polygon points="455,395 445,400 455,405" fill="#34495e"/>
  <text x="530" y="395" class="step">10. 返回结果</text>
  
  <circle cx="450" cy="420" r="15" fill="#e8f5e8" stroke="#28a745"/>
  <text x="450" y="425" class="step" text-anchor="middle">11. 保存记录</text>
  
  <line x1="450" y1="440" x2="280" y2="440" class="arrow" stroke-dasharray="5,5"/>
  <polygon points="285,435 275,440 285,445" fill="#34495e"/>
  <text x="360" y="435" class="step">12. 返回结果</text>
  
  <line x1="280" y1="460" x2="110" y2="460" class="arrow" stroke-dasharray="5,5"/>
  <polygon points="115,455 105,460 115,465" fill="#34495e"/>
  <text x="190" y="455" class="step">13. 返回状态</text>
  
  <!-- Phase 3 -->
  <rect x="50" y="490" width="800" height="25" class="phase-box"/>
  <text x="450" y="507" class="phase">第三阶段：核销回调</text>
  
  <!-- Steps 14-17 -->
  <rect x="720" y="530" width="100" height="30" fill="#fff3cd" stroke="#ffeaa7"/>
  <text x="770" y="545" class="step" text-anchor="middle">用户使用优惠券</text>
  
  <line x1="790" y1="575" x2="620" y2="575" class="arrow"/>
  <polygon points="625,570 615,575 625,580" fill="#34495e"/>
  <text x="700" y="570" class="step">14. 核销通知</text>
  
  <line x1="620" y1="595" x2="450" y2="595" class="arrow"/>
  <polygon points="445,590 455,595 445,600" fill="#34495e"/>
  <text x="530" y="590" class="step">15. 回调通知</text>
  
  <circle cx="450" cy="615" r="15" fill="#e8f5e8" stroke="#28a745"/>
  <text x="450" y="620" class="step" text-anchor="middle">16. 更新记录</text>
  
  <line x1="450" y1="635" x2="620" y2="635" class="arrow" stroke-dasharray="5,5"/>
  <polygon points="615,630 625,635 615,640" fill="#34495e"/>
  <text x="530" y="630" class="step">17. 确认回调</text>
  
  <!-- Phase 4 -->
  <rect x="50" y="665" width="800" height="25" class="phase-box"/>
  <text x="450" y="682" class="phase">第四阶段：数据查询与展示</text>
  
  <!-- Steps 18-23 -->
  <line x1="110" y1="705" x2="280" y2="705" class="arrow"/>
  <polygon points="275,700 285,705 275,710" fill="#34495e"/>
  <text x="190" y="700" class="step">18. 查询请求</text>
  
  <line x1="280" y1="720" x2="450" y2="720" class="arrow"/>
  <polygon points="445,715 455,720 445,725" fill="#34495e"/>
  <text x="360" y="715" class="step">19. 查询接口</text>
  
  <line x1="450" y1="735" x2="280" y2="735" class="arrow" stroke-dasharray="5,5"/>
  <polygon points="285,730 275,735 285,740" fill="#34495e"/>
  <text x="360" y="730" class="step">20. 返回数据</text>
  
  <line x1="280" y1="750" x2="110" y2="750" class="arrow" stroke-dasharray="5,5"/>
  <polygon points="115,745 105,750 115,755" fill="#34495e"/>
  <text x="190" y="745" class="step">21. 展示结果</text>
  
</svg>