<?xml version="1.0" encoding="UTF-8"?>
<svg width="800" height="1000" xmlns="http://www.w3.org/2000/svg">
  <defs>
    <style>
      .title { font-family: Arial, sans-serif; font-size: 16px; font-weight: bold; fill: #2c3e50; }
      .participant { font-family: Arial, sans-serif; font-size: 12px; font-weight: bold; fill: #2c3e50; }
      .step { font-family: Arial, sans-serif; font-size: 10px; fill: #34495e; }
      .note { font-family: Arial, sans-serif; font-size: 10px; fill: #7f8c8d; font-style: italic; }
      .phase { font-family: Arial, sans-serif; font-size: 11px; font-weight: bold; fill: #e74c3c; }
      .line { stroke: #34495e; stroke-width: 1; }
      .arrow { stroke: #34495e; stroke-width: 2; fill: none; marker-end: url(#arrowhead); }
      .dashed { stroke-dasharray: 5,5; }
      .participant-box { fill: #ecf0f1; stroke: #bdc3c7; stroke-width: 1; }
      .phase-box { fill: #fef9e7; stroke: #f39c12; stroke-width: 1; }
    </style>
    <marker id="arrowhead" markerWidth="10" markerHeight="7" refX="9" refY="3.5" orient="auto">
      <polygon points="0 0, 10 3.5, 0 7" fill="#34495e" />
    </marker>
  </defs>
  
  <!-- Title -->
  <text x="400" y="25" class="title" text-anchor="middle">云数惠微信优惠券业务流程时序图</text>
  
  <!-- Participants -->
  <rect x="50" y="50" width="100" height="30" class="participant-box"/>
  <text x="100" y="70" class="participant" text-anchor="middle">领券页面</text>
  
  <rect x="200" y="50" width="100" height="30" class="participant-box"/>
  <text x="250" y="70" class="participant" text-anchor="middle">银行营销系统</text>
  
  <rect x="350" y="50" width="100" height="30" class="participant-box"/>
  <text x="400" y="65" class="participant" text-anchor="middle">我方系统</text>
  <text x="400" y="75" class="participant" text-anchor="middle">(联合营销平台)</text>
  
  <rect x="500" y="50" width="100" height="30" class="participant-box"/>
  <text x="550" y="70" class="participant" text-anchor="middle">云数惠系统</text>
  
  <rect x="650" y="50" width="100" height="30" class="participant-box"/>
  <text x="700" y="70" class="participant" text-anchor="middle">微信平台</text>
  
  <!-- Lifelines -->
  <line x1="100" y1="80" x2="100" y2="950" class="line"/>
  <line x1="250" y1="80" x2="250" y2="950" class="line"/>
  <line x1="400" y1="80" x2="400" y2="950" class="line"/>
  <line x1="550" y1="80" x2="550" y2="950" class="line"/>
  <line x1="700" y1="80" x2="700" y2="950" class="line"/>
  
  <!-- Phase 1: 获取OpenID -->
  <rect x="50" y="100" width="700" height="25" class="phase-box"/>
  <text x="400" y="115" class="phase" text-anchor="middle">第一阶段：获取用户OpenID</text>
  
  <!-- Step 1 -->
  <line x1="100" y1="140" x2="550" y2="140" class="arrow"/>
  <text x="320" y="135" class="step">1. 跳转H5页面获取OpenID</text>
  <text x="320" y="148" class="step">GET /deliverWM/{batchCode}?wmcb=xxx</text>
  
  <!-- Step 2 -->
  <line x1="550" y1="165" x2="700" y2="165" class="arrow"/>
  <text x="620" y="160" class="step">2. 微信授权获取OpenID</text>
  
  <!-- Step 3 -->
  <line x1="700" y1="185" x2="550" y2="185" class="arrow dashed"/>
  <text x="620" y="180" class="step">3. 返回用户OpenID</text>
  
  <!-- Step 4 -->
  <line x1="550" y1="205" x2="100" y2="205" class="arrow"/>
  <text x="320" y="200" class="step">4. 回调返回OpenID</text>
  <text x="320" y="213" class="step">${redirect_url}&openid=${openId}&from=dshy</text>
  
  <!-- Phase 2: 优惠券发放 -->
  <rect x="50" y="235" width="700" height="25" class="phase-box"/>
  <text x="400" y="250" class="phase" text-anchor="middle">第二阶段：优惠券发放</text>
  
  <!-- Step 5 -->
  <line x1="100" y1="275" x2="250" y2="275" class="arrow"/>
  <text x="175" y="270" class="step">5. 发券请求</text>
  <text x="175" y="283" class="step">(携带openid+活动信息)</text>
  
  <!-- Step 6 -->
  <line x1="250" y1="300" x2="400" y2="300" class="arrow"/>
  <text x="325" y="295" class="step">6. 调用发券接口</text>
  <text x="325" y="308" class="step">(验证活动编码)</text>
  
  <!-- Step 7 -->
  <line x1="400" y1="325" x2="550" y2="325" class="arrow"/>
  <text x="475" y="320" class="step">7. 调用云数惠发券API</text>
  <text x="475" y="333" class="step">POST /api/coupon/send</text>
  
  <!-- API Parameters -->
  <rect x="580" y="340" width="160" height="60" fill="#f8f9fa" stroke="#dee2e6"/>
  <text x="585" y="355" class="note">请求参数:</text>
  <text x="585" y="368" class="note">openId: "oPa1U6..."</text>
  <text x="585" y="381" class="note">batchCode: "1017578..."</text>
  <text x="585" y="394" class="note">callTradeNo: "1731749..."</text>
  
  <!-- Step 8 -->
  <line x1="550" y1="420" x2="700" y2="420" class="arrow"/>
  <text x="625" y="415" class="step">8. 向微信发起优惠券发放</text>
  
  <!-- Step 9 -->
  <line x1="700" y1="445" x2="550" y2="445" class="arrow dashed"/>
  <text x="625" y="440" class="step">9. 返回发放结果</text>
  
  <!-- Step 10 -->
  <line x1="550" y1="470" x2="400" y2="470" class="arrow dashed"/>
  <text x="475" y="465" class="step">10. 返回发放结果</text>
  <text x="475" y="478" class="step">(成功/失败状态)</text>
  
  <!-- Step 11 -->
  <ellipse cx="400" cy="500" rx="40" ry="15" fill="#e8f5e8" stroke="#28a745"/>
  <text x="400" y="505" class="step" text-anchor="middle">11. 保存发放记录</text>
  
  <!-- Step 12 -->
  <line x1="400" y1="525" x2="250" y2="525" class="arrow dashed"/>
  <text x="325" y="520" class="step">12. 返回发券结果</text>
  
  <!-- Step 13 -->
  <line x1="250" y1="550" x2="100" y2="550" class="arrow dashed"/>
  <text x="175" y="545" class="step">13. 返回发券状态</text>
  
  <!-- Phase 3: 核销回调 -->
  <rect x="50" y="580" width="700" height="25" class="phase-box"/>
  <text x="400" y="595" class="phase" text-anchor="middle">第三阶段：优惠券核销回调</text>
  
  <!-- User usage note -->
  <rect x="620" y="610" width="120" height="30" fill="#fff3cd" stroke="#ffeaa7"/>
  <text x="680" y="625" class="note" text-anchor="middle">用户在商户处</text>
  <text x="680" y="635" class="note" text-anchor="middle">使用优惠券</text>
  
  <!-- Step 14 -->
  <line x1="700" y1="660" x2="550" y2="660" class="arrow"/>
  <text x="625" y="655" class="step">14. 核销通知</text>
  
  <!-- Step 15 -->
  <line x1="550" y1="685" x2="400" y2="685" class="arrow"/>
  <text x="475" y="680" class="step">15. 核销回调通知</text>
  <text x="475" y="693" class="step">POST writeOffNotify</text>
  
  <!-- Step 16 -->
  <ellipse cx="400" cy="715" rx="40" ry="15" fill="#e8f5e8" stroke="#28a745"/>
  <text x="400" y="720" class="step" text-anchor="middle">16. 更新核销记录</text>
  
  <!-- Step 17 -->
  <line x1="400" y1="740" x2="550" y2="740" class="arrow dashed"/>
  <text x="475" y="735" class="step">17. 确认回调接收</text>
  
  <!-- Phase 4: 数据查询 -->
  <rect x="50" y="770" width="700" height="25" class="phase-box"/>
  <text x="400" y="785" class="phase" text-anchor="middle">第四阶段：数据查询与展示</text>
  
  <!-- Step 18 -->
  <line x1="100" y1="810" x2="250" y2="810" class="arrow"/>
  <text x="175" y="805" class="step">18. 查询发券结果</text>
  
  <!-- Step 19 -->
  <line x1="250" y1="835" x2="400" y2="835" class="arrow"/>
  <text x="325" y="830" class="step">19. 调用查询接口</text>
  
  <!-- Step 20 -->
  <line x1="400" y1="860" x2="550" y2="860" class="arrow"/>
  <text x="475" y="855" class="step">20. 查询云数惠数据</text>
  <text x="475" y="868" class="step">POST /api/coupon/query</text>
  
  <!-- Step 21 -->
  <line x1="550" y1="885" x2="400" y2="885" class="arrow dashed"/>
  <text x="475" y="880" class="step">21. 返回查询结果</text>
  
  <!-- Step 22 -->
  <line x1="400" y1="910" x2="250" y2="910" class="arrow dashed"/>
  <text x="325" y="905" class="step">22. 返回统计数据</text>
  <text x="325" y="918" class="step">(发放量+核销量)</text>
  
  <!-- Step 23 -->
  <line x1="250" y1="935" x2="100" y2="935" class="arrow dashed"/>
  <text x="175" y="930" class="step">23. 展示查询结果</text>
  
</svg>